<svg width="40" height="40" viewBox="0 0 40 40" fill="none" xmlns="http://www.w3.org/2000/svg">
<path d="M40 20C40 31.0457 31.0457 40 20 40C8.9543 40 0 31.0457 0 20C0 8.9543 8.9543 0 20 0C31.0457 0 40 8.9543 40 20Z" fill="white"/>
<path d="M25.5268 13.2321C25.5268 13.3647 25.4183 13.4731 25.2857 13.4731H23.5982C23.4656 13.4731 23.3572 13.3647 23.3572 13.2321V11.7856H15.6429V13.2321C15.6429 13.3647 15.5344 13.4731 15.4018 13.4731H13.7143C13.5817 13.4731 13.4732 13.3647 13.4732 13.2321V11.7856H9.61609V15.8839H29.3839V11.7856H25.5268V13.2321Z" fill="#49FB34"/>
<path d="M30.5893 9.61593H25.5268V7.68736C25.5268 7.55477 25.4183 7.44629 25.2857 7.44629H23.5982C23.4656 7.44629 23.3571 7.55477 23.3571 7.68736V9.61593H15.6428V7.68736C15.6428 7.55477 15.5344 7.44629 15.4018 7.44629H13.7143C13.5817 7.44629 13.4732 7.55477 13.4732 7.68736V9.61593H8.4107C7.87733 9.61593 7.44641 10.0468 7.44641 10.5802V30.5891C7.44641 31.1225 7.87733 31.5534 8.4107 31.5534H30.5893C31.1226 31.5534 31.5536 31.1225 31.5536 30.5891V10.5802C31.5536 10.0468 31.1226 9.61593 30.5893 9.61593ZM29.3839 29.3838H9.61605V17.9329H29.3839V29.3838ZM29.3839 15.8838H9.61605V11.7856H13.4732V13.232C13.4732 13.3646 13.5817 13.4731 13.7143 13.4731H15.4018C15.5344 13.4731 15.6428 13.3646 15.6428 13.232V11.7856H23.3571V13.232C23.3571 13.3646 23.4656 13.4731 23.5982 13.4731H25.2857C25.4183 13.4731 25.5268 13.3646 25.5268 13.232V11.7856H29.3839V15.8838Z" fill="black"/>
</svg>
