<svg width="46" height="48" viewBox="0 0 46 48" fill="none" xmlns="http://www.w3.org/2000/svg">
<ellipse cx="23.0257" cy="24" rx="22.6752" ry="23.242" fill="#49FB34"/>
<g clip-path="url(#clip0_144_101)">
<path d="M30.3943 22.8661H4.88477V38.1719H30.3943V22.8661Z" fill="black"/>
<path fill-rule="evenodd" clip-rule="evenodd" d="M29.332 23.8229H5.94824V37.2154H29.332V23.8229ZM24.0175 29.5625H27.2062V33.389H24.0175V29.5625ZM10.1998 33.389H20.8288V34.3456H10.1998V33.389ZM20.8288 31.4757H10.1998V32.4324H20.8288V31.4757ZM10.1998 29.5625H20.8288V30.5191H10.1998V29.5625Z" fill="white"/>
<path d="M30.3945 36.2586H35.709V35.302H36.7719V34.3454H37.8348V33.3888H38.8976V19.0397H37.8348V18.0831H38.8976V8.51697H37.8348V7.56036H26.1429V8.51697H25.08V7.56036H16.5768V8.51697H14.451V9.47358H13.3881V10.4302H12.3252V19.0397H13.3881V19.9963H12.3252V22.8661H30.3945V36.2586Z" fill="black"/>
<path fill-rule="evenodd" clip-rule="evenodd" d="M14.4506 9.47358V10.4302H13.3877V19.0397H15.5135V13.3H22.9538V11.3868H14.4506V10.4302H24.0167V9.47358H25.0796V10.4302H33.5828V11.3868H24.0167V13.3H32.5199V19.0397H34.6457V10.4302H35.7086V19.0397H36.7715V19.9963H35.7086V33.4592V34.3454H36.7715V33.3888H37.8344V32.4322V19.0397H36.7715V18.0831H37.8344V9.47358V8.51697H26.1425V9.47358H25.0796V8.51697H16.5764V9.47358H14.4506ZM35.7086 10.4302V9.47358H36.7715V10.4302H35.7086ZM15.5135 19.9963V22.8661H13.3877V19.9963H15.5135ZM19.7651 19.0397H16.5764V14.2566H22.9538V17.1264H20.828V18.0831H19.7651V19.0397ZM20.828 18.0831H22.9538V19.0397H20.828V18.0831ZM21.8909 19.9963H16.5764V22.8661H22.9538V20.9529H21.8909V19.9963ZM21.8909 20.9529V21.9095H19.7651V20.9529H21.8909ZM25.0796 18.0831H26.1425V16.1698H25.0796V18.0831ZM25.0796 19.0397V18.0831H24.0167V14.2566H31.457V19.0397H25.0796ZM25.0796 19.9963V20.9529H24.0167V22.8661H30.3941V31.4756H31.457V19.9963H28.2683V20.9529H27.2054V19.9963H25.0796ZM27.2054 20.9529H25.0796V21.9095H27.2054V20.9529ZM34.6457 19.9963V35.302H30.3941V32.4322H32.5199V19.9963H34.6457Z" fill="white"/>
</g>
<defs>
<clipPath id="clip0_144_101">
<rect width="34.0127" height="30.6115" fill="white" transform="translate(4.88477 7.56049)"/>
</clipPath>
</defs>
</svg>
