<svg width="46" height="48" viewBox="0 0 46 48" fill="none" xmlns="http://www.w3.org/2000/svg">
<ellipse cx="23.0257" cy="24" rx="22.6752" ry="23.242" fill="#D9D9D9"/>
<g clip-path="url(#clip0_142_114)">
<path d="M30.3948 22.8661H4.88525V38.1719H30.3948V22.8661Z" fill="black"/>
<path fill-rule="evenodd" clip-rule="evenodd" d="M29.332 23.8229H5.94824V37.2154H29.332V23.8229ZM24.0175 29.5625H27.2062V33.389H24.0175V29.5625ZM10.1998 33.389H20.8288V34.3456H10.1998V33.389ZM20.8288 31.4757H10.1998V32.4324H20.8288V31.4757ZM10.1998 29.5625H20.8288V30.5191H10.1998V29.5625Z" fill="white"/>
<path d="M30.395 36.2586H35.7094V35.302H36.7723V34.3454H37.8352V33.3888H38.8981V19.0397H37.8352V18.0831H38.8981V8.51697H37.8352V7.56036H26.1434V8.51697H25.0805V7.56036H16.5773V8.51697H14.4515V9.47358H13.3886V10.4302H12.3257V19.0397H13.3886V19.9963H12.3257V22.8661H30.395V36.2586Z" fill="black"/>
<path fill-rule="evenodd" clip-rule="evenodd" d="M14.4516 9.47358V10.4302H13.3887V19.0397H15.5145V13.3H22.9548V11.3868H14.4516V10.4302H24.0177V9.47358H25.0806V10.4302H33.5837V11.3868H24.0177V13.3H32.5208V19.0397H34.6466V10.4302H35.7095V19.0397H36.7724V19.9963H35.7095V33.4592V34.3454H36.7724V33.3888H37.8353V32.4322V19.0397H36.7724V18.083H37.8353V9.47358V8.51697H26.1434V9.47358H25.0806V8.51697H16.5774V9.47358H14.4516ZM35.7095 10.4302V9.47358H36.7724V10.4302H35.7095ZM15.5145 19.9963V22.8661H13.3887V19.9963H15.5145ZM19.7661 19.0397H16.5774V14.2566H22.9548V17.1264H20.829V18.083H19.7661V19.0397ZM20.829 18.083H22.9548V19.0397H20.829V18.083ZM21.8919 19.9963H16.5774V22.8661H22.9548V20.9529H21.8919V19.9963ZM21.8919 20.9529V21.9095H19.7661V20.9529H21.8919ZM25.0806 18.083H26.1434V16.1698H25.0806V18.083ZM25.0806 19.0397V18.083H24.0177V14.2566H31.4579V19.0397H25.0806ZM25.0806 19.9963V20.9529H24.0177V22.8661H30.395V31.4756H31.4579V19.9963H28.2692V20.9529H27.2063V19.9963H25.0806ZM27.2063 20.9529H25.0806V21.9095H27.2063V20.9529ZM34.6466 19.9963V35.302H30.395V32.4322H32.5208V19.9963H34.6466Z" fill="white"/>
</g>
<defs>
<clipPath id="clip0_142_114">
<rect width="34.0127" height="30.6115" fill="white" transform="translate(4.88525 7.56049)"/>
</clipPath>
</defs>
</svg>
