<svg width="50" height="50" viewBox="0 0 50 50" fill="none" xmlns="http://www.w3.org/2000/svg">
<path d="M8.6108 13.1695H4.29718C3.9233 13.1695 3.71683 13.5992 3.94562 13.8893L23.5941 39.0456C23.7603 39.2593 23.9731 39.4323 24.2163 39.5512C24.4596 39.6702 24.7268 39.7321 24.9975 39.7321C25.2683 39.7321 25.5355 39.6702 25.7787 39.5512C26.0219 39.4323 26.2348 39.2593 26.401 39.0456L46.0494 13.8893C46.2782 13.5936 46.0717 13.1695 45.6979 13.1695H41.3842C41.1108 13.1695 40.8485 13.2978 40.6811 13.5099L25.0003 33.5992L9.31393 13.5099C9.14652 13.2978 8.88424 13.1695 8.6108 13.1695Z" fill="white"/>
</svg>
