<svg width="18" height="18" viewBox="0 0 18 18" fill="none" xmlns="http://www.w3.org/2000/svg">
<path d="M12.5514 2.86389L13.9576 1.45765C14.5678 0.847451 15.5572 0.847451 16.1674 1.45765C16.7775 2.06784 16.7775 3.05716 16.1674 3.66735L7.31849 12.5162C6.87792 12.9568 6.33453 13.2806 5.73741 13.4585L3.5 14.125L4.16648 11.8876C4.34435 11.2905 4.6682 10.7471 5.10877 10.3065L12.5514 2.86389ZM12.5514 2.86389L14.75 5.06249M13.5 10.7917V14.75C13.5 15.7855 12.6605 16.625 11.625 16.625H2.875C1.83947 16.625 1 15.7855 1 14.75V5.99999C1 4.96446 1.83947 4.12499 2.875 4.12499H6.83333" stroke="white" stroke-width="1.5" stroke-linecap="round" stroke-linejoin="round"/>
</svg>
