<svg width="46" height="48" viewBox="0 0 46 48" fill="none" xmlns="http://www.w3.org/2000/svg">
<ellipse cx="23.3246" cy="24" rx="22.6752" ry="23.242" fill="#D9D9D9"/>
<g clip-path="url(#clip0_139_7)">
<path fill-rule="evenodd" clip-rule="evenodd" d="M10.6704 5.29279V41.2312H37.8698V12.0312H36.782V10.9082H35.6939V9.78509H34.6059V8.66201H33.5179V7.53894H32.43V6.41586H31.342V5.29279H10.6704Z" fill="black"/>
<path fill-rule="evenodd" clip-rule="evenodd" d="M36.7818 40.1085H11.7583V6.41614H30.254V13.1546H36.7818V40.1085ZM31.3419 7.53921V12.0315H35.6938V10.9084H34.6059V9.78537H33.5179V8.66229H32.4299V7.53921H31.3419Z" fill="white"/>
<path fill-rule="evenodd" clip-rule="evenodd" d="M17.1989 10.9085V12.0316H20.4629V10.9085H17.1989ZM15.0229 13.1547V14.2777H18.2869V13.1547H15.0229ZM21.5509 12.0316V10.9085H25.9028V12.0316H21.5509ZM19.3749 13.1547V14.2777H22.6388V13.1547H19.3749ZM26.9907 12.0316V10.9085H30.2547V12.0316H26.9907ZM23.7268 13.1547V14.2777H29.1667V13.1547H23.7268ZM15.0229 16.5239V15.4008H20.4629V16.5239H15.0229ZM21.5509 15.4008V16.5239H28.0787V15.4008H21.5509ZM29.1667 16.5239V15.4008H33.5186V16.5239H29.1667ZM15.0229 17.647V18.7701H18.2869V17.647H15.0229ZM19.3749 18.7701V17.647H22.6388V18.7701H19.3749ZM23.7268 17.647V18.7701H26.9907V17.647H23.7268ZM28.0787 18.7701V17.647H32.4306V18.7701H28.0787ZM17.1989 21.0162V22.1393H21.5509V21.0162H17.1989ZM22.6388 22.1393V21.0162H26.9907V22.1393H22.6388ZM28.0787 21.0162V22.1393H33.5186V21.0162H28.0787ZM15.0229 24.3855V23.2624H19.3749V24.3855H15.0229ZM20.4629 23.2624V24.3855H24.8148V23.2624H20.4629ZM25.9028 24.3855V23.2624H30.2547V24.3855H25.9028ZM31.3427 23.2624V24.3855H33.5186V23.2624H31.3427ZM15.0229 26.6316V25.5085H17.1989V26.6316H15.0229ZM18.2869 25.5085V26.6316H22.6388V25.5085H18.2869ZM23.7268 26.6316V25.5085H28.0787V26.6316H23.7268ZM29.1667 25.5085V26.6316H33.5186V25.5085H29.1667ZM15.0229 28.8778V27.7547H19.3749V28.8778H15.0229ZM20.4629 27.7547V28.8778H25.9028V27.7547H20.4629ZM26.9907 28.8778V27.7547H31.3427V28.8778H26.9907ZM17.1989 31.1238V32.2469H21.5509V31.1238H17.1989ZM22.6388 32.2469V31.1238H25.9028V32.2469H22.6388ZM26.9907 31.1238V32.2469H29.1667V31.1238H26.9907ZM30.2547 32.2469V31.1238H33.5186V32.2469H30.2547ZM15.0229 33.37V34.4931H19.3749V33.37H15.0229ZM20.4629 34.4931V33.37H23.7268V34.4931H20.4629ZM24.8148 33.37V34.4931H28.0787V33.37H24.8148ZM29.1667 34.4931V33.37H33.5186V34.4931H29.1667ZM15.0229 35.6161V36.7392H18.2869V35.6161H15.0229ZM19.3749 36.7392V35.6161H24.8148V36.7392H19.3749ZM25.9028 35.6161V36.7392H30.2547V35.6161H25.9028ZM31.3427 36.7392V35.6161H33.5186V36.7392H31.3427Z" fill="black"/>
</g>
<defs>
<clipPath id="clip0_139_7">
<rect width="35.1465" height="36.2803" fill="white" transform="translate(6.31836 5.29297)"/>
</clipPath>
</defs>
</svg>
