<svg width="46" height="48" viewBox="0 0 46 48" fill="none" xmlns="http://www.w3.org/2000/svg">
<ellipse cx="23.3246" cy="24" rx="22.6752" ry="23.242" fill="#49FB34"/>
<g clip-path="url(#clip0_144_37)">
<path fill-rule="evenodd" clip-rule="evenodd" d="M10.6699 5.29279V41.2312H37.8694V12.0312H36.7815V10.9082H35.6935V9.78509H34.6055V8.66201H33.5175V7.53894H32.4296V6.41586H31.3416V5.29279H10.6699Z" fill="black"/>
<path fill-rule="evenodd" clip-rule="evenodd" d="M36.7813 40.1085H11.7578V6.41614H30.2535V13.1546H36.7813V40.1085ZM31.3414 7.53921V12.0315H35.6933V10.9084H34.6054V9.78537H33.5174V8.66229H32.4294V7.53921H31.3414Z" fill="white"/>
<path fill-rule="evenodd" clip-rule="evenodd" d="M17.1994 10.9085V12.0316H20.4634V10.9085H17.1994ZM15.0234 13.1547V14.2777H18.2874V13.1547H15.0234ZM21.5514 12.0316V10.9085H25.9033V12.0316H21.5514ZM19.3754 13.1547V14.2777H22.6393V13.1547H19.3754ZM26.9912 12.0316V10.9085H30.2552V12.0316H26.9912ZM23.7273 13.1547V14.2777H29.1672V13.1547H23.7273ZM15.0234 16.5239V15.4008H20.4634V16.5239H15.0234ZM21.5514 15.4008V16.5239H28.0792V15.4008H21.5514ZM29.1672 16.5239V15.4008H33.5191V16.5239H29.1672ZM15.0234 17.647V18.7701H18.2874V17.647H15.0234ZM19.3754 18.7701V17.647H22.6393V18.7701H19.3754ZM23.7273 17.647V18.7701H26.9912V17.647H23.7273ZM28.0792 18.7701V17.647H32.4311V18.7701H28.0792ZM17.1994 21.0162V22.1393H21.5514V21.0162H17.1994ZM22.6393 22.1393V21.0162H26.9912V22.1393H22.6393ZM28.0792 21.0162V22.1393H33.5191V21.0162H28.0792ZM15.0234 24.3855V23.2624H19.3754V24.3855H15.0234ZM20.4634 23.2624V24.3855H24.8153V23.2624H20.4634ZM25.9033 24.3855V23.2624H30.2552V24.3855H25.9033ZM31.3432 23.2624V24.3855H33.5191V23.2624H31.3432ZM15.0234 26.6316V25.5085H17.1994V26.6316H15.0234ZM18.2874 25.5085V26.6316H22.6393V25.5085H18.2874ZM23.7273 26.6316V25.5085H28.0792V26.6316H23.7273ZM29.1672 25.5085V26.6316H33.5191V25.5085H29.1672ZM15.0234 28.8778V27.7547H19.3754V28.8778H15.0234ZM20.4634 27.7547V28.8778H25.9033V27.7547H20.4634ZM26.9912 28.8778V27.7547H31.3432V28.8778H26.9912ZM17.1994 31.1238V32.2469H21.5514V31.1238H17.1994ZM22.6393 32.2469V31.1238H25.9033V32.2469H22.6393ZM26.9912 31.1238V32.2469H29.1672V31.1238H26.9912ZM30.2552 32.2469V31.1238H33.5191V32.2469H30.2552ZM15.0234 33.37V34.4931H19.3754V33.37H15.0234ZM20.4634 34.4931V33.37H23.7273V34.4931H20.4634ZM24.8153 33.37V34.4931H28.0792V33.37H24.8153ZM29.1672 34.4931V33.37H33.5191V34.4931H29.1672ZM15.0234 35.6161V36.7392H18.2874V35.6161H15.0234ZM19.3754 36.7392V35.6161H24.8153V36.7392H19.3754ZM25.9033 35.6161V36.7392H30.2552V35.6161H25.9033ZM31.3432 36.7392V35.6161H33.5191V36.7392H31.3432Z" fill="black"/>
</g>
<defs>
<clipPath id="clip0_144_37">
<rect width="35.1465" height="36.2803" fill="white" transform="translate(6.31836 5.29297)"/>
</clipPath>
</defs>
</svg>
