<svg width="50" height="40" viewBox="0 0 50 40" fill="none" xmlns="http://www.w3.org/2000/svg">
<path d="M36.8305 6.88859V3.4377C36.8305 3.13859 36.4008 2.97341 36.1106 3.15645L10.9544 18.8752C10.7406 19.0082 10.5677 19.1784 10.4487 19.373C10.3298 19.5676 10.2679 19.7814 10.2679 19.998C10.2679 20.2146 10.3298 20.4283 10.4487 20.6229C10.5677 20.8175 10.7406 20.9878 10.9544 21.1207L36.1106 36.8395C36.4064 37.0225 36.8305 36.8573 36.8305 36.5582V33.1073C36.8305 32.8886 36.7021 32.6788 36.4901 32.5448L16.4008 20.0002L36.4901 7.45109C36.7021 7.31716 36.8305 7.10734 36.8305 6.88859Z" fill="white"/>
</svg>
