<svg width="23" height="23" viewBox="0 0 23 23" fill="none" xmlns="http://www.w3.org/2000/svg">
<g clip-path="url(#clip0_123_157)">
<path d="M21.8265 3H1.51651C1.08443 3 0.735352 3.34908 0.735352 3.78115V19.4042C0.735352 19.8363 1.08443 20.1854 1.51651 20.1854H21.8265C22.2586 20.1854 22.6077 19.8363 22.6077 19.4042V3.78115C22.6077 3.34908 22.2586 3 21.8265 3ZM20.8501 5.70475V18.4278H2.49295V5.70475L1.8192 5.17991L2.77856 3.94715L3.82335 4.76004H19.5221L20.5669 3.94715L21.5263 5.17991L20.8501 5.70475ZM19.5221 4.7576L11.6715 10.8604L3.82091 4.7576L2.77612 3.94471L1.81676 5.17747L2.49051 5.70231L10.8293 12.1859C11.0691 12.3722 11.3642 12.4733 11.6678 12.4733C11.9715 12.4733 12.2666 12.3722 12.5064 12.1859L20.8501 5.70475L21.5238 5.17991L20.5645 3.94715L19.5221 4.7576Z" fill="white"/>
</g>
<defs>
<clipPath id="clip0_123_157">
<rect width="22.6076" height="22.6076" fill="white"/>
</clipPath>
</defs>
</svg>
