<svg width="22" height="22" viewBox="0 0 22 22" fill="none" xmlns="http://www.w3.org/2000/svg">
<path d="M21.12 0H0.88C0.39325 0 0 0.39325 0 0.88V21.12C0 21.6067 0.39325 22 0.88 22H21.12C21.6067 22 22 21.6067 22 21.12V0.88C22 0.39325 21.6067 0 21.12 0ZM20.02 20.02H1.98V1.98H20.02V20.02ZM5.302 11.33H6.69625C6.798 11.33 6.88325 11.2475 6.88325 11.143V8.97325C6.88325 8.4315 7.3205 7.99425 7.8595 7.99425H13.5162V9.46275C13.5162 9.6195 13.695 9.70475 13.816 9.6085L16.8162 7.25175C16.9125 7.1775 16.9125 7.03175 16.8162 6.9575L13.816 4.60075C13.695 4.5045 13.5162 4.5925 13.5162 4.7465V6.215H7.85675C6.3415 6.215 5.115 7.447 5.115 8.96775V11.1375C5.115 11.2475 5.1975 11.33 5.302 11.33ZM5.1865 15.0398L8.18675 17.3965C8.30775 17.4927 8.4865 17.4047 8.4865 17.2507V15.7823H14.1432C15.6585 15.7823 16.885 14.5502 16.885 13.0295V10.8597C16.885 10.758 16.8025 10.6728 16.698 10.6728H15.3038C15.202 10.6728 15.1168 10.7552 15.1168 10.8597V13.0295C15.1168 13.5713 14.6795 14.0085 14.1405 14.0085H8.4865V12.54C8.4865 12.3832 8.30775 12.298 8.18675 12.3942L5.1865 14.751C5.09025 14.8198 5.09025 14.9655 5.1865 15.0398Z" fill="white"/>
</svg>
