<svg width="35" height="35" viewBox="0 0 35 35" fill="none" xmlns="http://www.w3.org/2000/svg">
<g clip-path="url(#clip0_123_347)">
<path d="M27.1525 11.1079C27.1525 11.2776 27.0136 11.4164 26.8439 11.4164H24.6841C24.5144 11.4164 24.3755 11.2776 24.3755 11.1079V8.948H18.6673V11.1079C18.6673 11.2776 18.5284 11.4164 18.3587 11.4164H16.1989C16.0292 11.4164 15.8903 11.2776 15.8903 11.1079V8.948H10.1821V11.1079C10.1821 11.2776 10.0433 11.4164 9.87355 11.4164H7.71369C7.54399 11.4164 7.40514 11.2776 7.40514 11.1079V8.948H2.77686V28.0782H31.7808V8.948H27.1525V11.1079ZM13.8847 24.0671C13.8847 24.2368 13.7459 24.3756 13.5762 24.3756H6.47948C6.30978 24.3756 6.17093 24.2368 6.17093 24.0671V22.2157C6.17093 22.046 6.30978 21.9072 6.47948 21.9072H13.5762C13.7459 21.9072 13.8847 22.046 13.8847 22.2157V24.0671ZM13.8847 18.8217C13.8847 18.9914 13.7459 19.1302 13.5762 19.1302H6.47948C6.30978 19.1302 6.17093 18.9914 6.17093 18.8217V16.9704C6.17093 16.8006 6.30978 16.6618 6.47948 16.6618H13.5762C13.7459 16.6618 13.8847 16.8006 13.8847 16.9704V18.8217ZM28.325 15.3042L21.9611 24.1249C21.9043 24.2038 21.8295 24.268 21.743 24.3123C21.6565 24.3565 21.5607 24.3796 21.4635 24.3796C21.3664 24.3796 21.2706 24.3565 21.1841 24.3123C21.0976 24.268 21.0228 24.2038 20.966 24.1249L16.5653 18.0233C16.4187 17.8189 16.5653 17.5335 16.816 17.5335H18.9334C19.1301 17.5335 19.3153 17.626 19.431 17.788L21.4674 20.6074L25.4632 15.065C25.5789 14.9069 25.764 14.8105 25.9568 14.8143H28.0743C28.325 14.8143 28.4715 15.0998 28.325 15.3042Z" fill="black"/>
<path d="M25.4631 15.065L21.4674 20.6074L19.4309 17.788C19.3152 17.626 19.1301 17.5334 18.9334 17.5334H16.8159C16.5652 17.5334 16.4187 17.8188 16.5652 18.0233L20.966 24.1249C21.0228 24.2037 21.0975 24.2679 21.184 24.3122C21.2705 24.3565 21.3663 24.3796 21.4635 24.3796C21.5607 24.3796 21.6565 24.3565 21.743 24.3122C21.8295 24.2679 21.9042 24.2037 21.9611 24.1249L28.3249 15.3041C28.4715 15.0997 28.3249 14.8143 28.0742 14.8143H25.9568C25.764 14.8105 25.5788 14.9069 25.4631 15.065ZM13.5761 16.6618H6.47945C6.30975 16.6618 6.1709 16.8006 6.1709 16.9703V18.8216C6.1709 18.9913 6.30975 19.1302 6.47945 19.1302H13.5761C13.7459 19.1302 13.8847 18.9913 13.8847 18.8216V16.9703C13.8847 16.8006 13.7459 16.6618 13.5761 16.6618Z" fill="white"/>
<path d="M33.3235 6.17081H27.1525V4.01094C27.1525 3.84124 27.0136 3.70239 26.8439 3.70239H24.684C24.5143 3.70239 24.3755 3.84124 24.3755 4.01094V6.17081H18.6673V4.01094C18.6673 3.84124 18.5284 3.70239 18.3587 3.70239H16.1989C16.0292 3.70239 15.8903 3.84124 15.8903 4.01094V6.17081H10.1821V4.01094C10.1821 3.84124 10.0432 3.70239 9.87355 3.70239H7.71368C7.54398 3.70239 7.40513 3.84124 7.40513 4.01094V6.17081H1.23409C0.551415 6.17081 -0.00012207 6.72235 -0.00012207 7.40502V29.6208C-0.00012207 30.3034 0.551415 30.855 1.23409 30.855H33.3235C34.0062 30.855 34.5577 30.3034 34.5577 29.6208V7.40502C34.5577 6.72235 34.0062 6.17081 33.3235 6.17081ZM31.7807 28.078H2.77685V8.94778H7.40513V11.1076C7.40513 11.2773 7.54398 11.4162 7.71368 11.4162H9.87355C10.0432 11.4162 10.1821 11.2773 10.1821 11.1076V8.94778H15.8903V11.1076C15.8903 11.2773 16.0292 11.4162 16.1989 11.4162H18.3587C18.5284 11.4162 18.6673 11.2773 18.6673 11.1076V8.94778H24.3755V11.1076C24.3755 11.2773 24.5143 11.4162 24.684 11.4162H26.8439C27.0136 11.4162 27.1525 11.2773 27.1525 11.1076V8.94778H31.7807V28.078Z" fill="white"/>
<path d="M13.5762 21.907H6.47945C6.30975 21.907 6.1709 22.0458 6.1709 22.2155V24.0668C6.1709 24.2366 6.30975 24.3754 6.47945 24.3754H13.5762C13.7459 24.3754 13.8847 24.2366 13.8847 24.0668V22.2155C13.8847 22.0458 13.7459 21.907 13.5762 21.907Z" fill="white"/>
</g>
<defs>
<clipPath id="clip0_123_347">
<rect width="34.5578" height="34.5578" fill="white"/>
</clipPath>
</defs>
</svg>
