<svg width="22" height="24" viewBox="0 0 22 24" fill="none" xmlns="http://www.w3.org/2000/svg">
<path d="M16.1489 6.49541V5.17431C16.1489 5.05321 16.0436 4.95413 15.9149 4.95413H4.68085C4.55213 4.95413 4.44681 5.05321 4.44681 5.17431V6.49541C4.44681 6.61651 4.55213 6.7156 4.68085 6.7156H15.9149C16.0436 6.7156 16.1489 6.61651 16.1489 6.49541ZM4.68085 8.91743C4.55213 8.91743 4.44681 9.01651 4.44681 9.13762V10.4587C4.44681 10.5798 4.55213 10.6789 4.68085 10.6789H10.0638C10.1926 10.6789 10.2979 10.5798 10.2979 10.4587V9.13762C10.2979 9.01651 10.1926 8.91743 10.0638 8.91743H4.68085ZM15.6809 12.1101C12.1907 12.1101 9.3617 14.7716 9.3617 18.055C9.3617 21.3385 12.1907 24 15.6809 24C19.171 24 22 21.3385 22 18.055C22 14.7716 19.171 12.1101 15.6809 12.1101ZM18.8258 21.0138C17.9862 21.8037 16.8686 22.2385 15.6809 22.2385C14.4931 22.2385 13.3755 21.8037 12.5359 21.0138C11.6963 20.2239 11.234 19.1725 11.234 18.055C11.234 16.9376 11.6963 15.8862 12.5359 15.0963C13.3755 14.3064 14.4931 13.8716 15.6809 13.8716C16.8686 13.8716 17.9862 14.3064 18.8258 15.0963C19.6654 15.8862 20.1277 16.9376 20.1277 18.055C20.1277 19.1725 19.6654 20.2239 18.8258 21.0138ZM18.2846 15.9633H16.9886C16.9125 15.9633 16.8423 15.9963 16.7984 16.0541L14.9407 18.4706L14.2649 17.5927C14.2432 17.5643 14.2147 17.5412 14.1816 17.5254C14.1485 17.5096 14.1118 17.5015 14.0747 17.5018H12.7846C12.5944 17.5018 12.4832 17.7055 12.5944 17.8514L14.7535 20.6615C14.8471 20.7826 15.0372 20.7826 15.1309 20.6615L18.4718 16.3128C18.5859 16.167 18.4747 15.9633 18.2846 15.9633ZM8.89362 21.3578H2.10638V1.98165H18.4894V11.4495C18.4894 11.5706 18.5947 11.6697 18.7234 11.6697H20.3617C20.4904 11.6697 20.5957 11.5706 20.5957 11.4495V0.880734C20.5957 0.393578 20.1774 0 19.6596 0H0.93617C0.418351 0 0 0.393578 0 0.880734V22.4587C0 22.9459 0.418351 23.3395 0.93617 23.3395H8.89362C9.02234 23.3395 9.12766 23.2404 9.12766 23.1193V21.578C9.12766 21.4569 9.02234 21.3578 8.89362 21.3578Z" fill="#49FB34"/>
</svg>
