<svg width="46" height="48" viewBox="0 0 46 48" fill="none" xmlns="http://www.w3.org/2000/svg">
<ellipse cx="22.892" cy="24" rx="22.6752" ry="23.242" fill="#D9D9D9"/>
<g clip-path="url(#clip0_142_112)">
<path fill-rule="evenodd" clip-rule="evenodd" d="M23.0336 42.6006H21.7581V41.3606H20.4827V40.1205H19.2072V38.8805H17.9317V37.6404H16.6562V36.4004H15.3808V35.1603H14.1053V33.9203H12.8298V32.6802H11.5543V31.4402H10.2788V30.2001H9.00337V28.9601H7.72789V27.72H6.45241V26.48H5.17693V25.2399H3.90145V23.9999H2.62598V22.7598H3.90145V21.5198H5.17693V20.2797H6.45241V19.0397H7.72789V17.7996H9.00337V16.5596H10.2788V15.3196H11.5543V14.0795H12.8298V12.8395H14.1053V11.5994H15.3808V10.3594H16.6562V9.11931H17.9317V7.87927H19.2072V6.63922H20.4827V5.39917H21.7581V6.63922H23.0336V7.87927H24.3091V9.11931H25.5846V10.3594H26.8601V11.5994H28.1355V12.8395H29.411V14.0795H30.6865V15.3196H31.962V16.5596H33.2374V17.7996H34.5129V19.0397H35.7884V20.2797H37.0639V21.5198H38.3394V22.7598H39.6148V23.9999H40.8903V25.2399H39.6148V26.48H38.3394V27.72V35.1603H35.7884V33.9203H29.411V36.4004H28.1355V37.6404H26.8601V38.8805H25.5846V40.1205H24.3091V41.3606H23.0336V42.6006Z" fill="white"/>
<path fill-rule="evenodd" clip-rule="evenodd" d="M21.7577 4.15924H20.4823V5.39929H19.2068V6.63934H17.9313V7.87938H16.6558V9.11943H15.3804V10.3595H14.1049V11.5995H12.8294V12.8396H11.5539V14.0796H10.2784V15.3197H9.00296V16.5597H7.72749V17.7998H6.45201V19.0398H5.17653V20.2799H3.90105V21.5199H2.62558V22.76H1.3501V24H2.62558V25.2401H3.90105V26.4801H5.17653V27.7201H6.45201V28.9602H7.72749V30.2002H9.00296V31.4403H10.2784V32.6803H11.5539V33.9204H12.8294V35.1604H14.1049V36.4005H15.3804V37.6405H16.6558V38.8806H17.9313V40.1206H19.2068V41.3607H20.4823V42.6007H21.7577V43.8408H23.0332V42.6007H24.3087V41.3607H25.5842V40.1206H26.8597V38.8806H28.1351V37.6405H29.4106V36.4005H30.6861V35.1604H29.4106V36.4005H28.1351V37.6405H26.8597V38.8806H25.5842V40.1206H24.3087V41.3607H23.0332V42.6007H21.7577V41.3607H20.4823V40.1206H19.2068V38.8806H17.9313V37.6405H16.6558V36.4005H15.3804V35.1604H14.1049V33.9204H12.8294V32.6803H11.5539V31.4403H10.2784V30.2002H9.00296V28.9602H7.72749V27.7201H6.45201V26.4801H5.17653V25.2401H3.90105V24H2.62558V22.76H3.90105V21.5199H5.17653V20.2799H6.45201V19.0398H7.72749V17.7998H9.00296V16.5597H10.2784V15.3197H11.5539V14.0796H12.8294V12.8396H14.1049V11.5995H15.3804V10.3595H16.6558V9.11943H17.9313V7.87938H19.2068V6.63934H20.4823V5.39929H21.7577V6.63934H23.0332V7.87938H24.3087V9.11943H25.5842V10.3595H26.8597V11.5995H28.1351V12.8396H29.4106V14.0796H30.6861V15.3197H31.9616V16.5597H33.237V17.7998H34.5125V19.0398H35.788V20.2799H37.0635V21.5199H38.339V22.76H39.6144V24H40.8899V25.2401H39.6144V26.4801H38.339V27.7201H39.6144V26.4801H40.8899V25.2401H42.1654V24H40.8899V22.76H39.6144V21.5199H38.339V20.2799H37.0635V19.0398H35.788V17.7998H34.5125V16.5597H33.237V15.3197H31.9616V14.0796H30.6861V12.8396H29.4106V11.5995H28.1351V10.3595H26.8597V9.11943H25.5842V7.87938H24.3087V6.63934H23.0332V5.39929H21.7577V4.15924Z" fill="black"/>
<path fill-rule="evenodd" clip-rule="evenodd" d="M31.962 21.5198H24.3091V22.7599H23.0336V23.9999H21.7582V25.24H20.4827V27.7201H16.6562V28.9601H19.2072V30.2002H20.4827V31.4402H21.7582V32.6803H23.0336V33.9203H25.5846V35.1604H35.7884V36.4004H38.3394V37.6405H42.1658V27.7201H38.3394H37.0639V26.48H35.7884V25.24H34.5129V23.9999H33.2375V22.7599H31.962V21.5198ZM31.962 22.7599V23.9999H33.2375V25.24H34.5129V26.48H35.7884V27.7201H37.0639V28.9601H38.3394V35.1604H35.7884V33.9203H25.5846V32.6803H23.0336V31.4402H21.7582V30.2002H20.4827V27.7201H23.0336V28.9601H24.3091V30.2002H26.8601V28.9601H33.2375V27.7201H28.1355V26.48H26.8601V25.24H24.3091V26.48H21.7582V25.24H23.0336V23.9999H24.3091V22.7599H31.962Z" fill="black"/>
<path fill-rule="evenodd" clip-rule="evenodd" d="M11.5542 27.7201H12.8297V28.9601H11.5542V27.7201Z" fill="black"/>
<path fill-rule="evenodd" clip-rule="evenodd" d="M7.72754 22.7598H9.00302V23.9999H7.72754V22.7598Z" fill="black"/>
<path fill-rule="evenodd" clip-rule="evenodd" d="M12.8296 26.4801H14.1051V27.7202H12.8296V26.4801Z" fill="black"/>
<path fill-rule="evenodd" clip-rule="evenodd" d="M9.00342 21.5198H10.2789V22.7599H9.00342V21.5198Z" fill="black"/>
<path fill-rule="evenodd" clip-rule="evenodd" d="M14.105 25.2399H15.3805V26.48H14.105V25.2399Z" fill="black"/>
<path fill-rule="evenodd" clip-rule="evenodd" d="M10.2788 20.2797H11.5543V21.5198H10.2788V20.2797Z" fill="black"/>
<path fill-rule="evenodd" clip-rule="evenodd" d="M15.3804 23.9999H16.6558V25.24H15.3804V23.9999Z" fill="black"/>
<path fill-rule="evenodd" clip-rule="evenodd" d="M11.5542 21.5198H12.8297V22.7599H11.5542V21.5198Z" fill="black"/>
<path fill-rule="evenodd" clip-rule="evenodd" d="M17.9316 23.9999H19.2071V25.24H17.9316V23.9999Z" fill="black"/>
<path fill-rule="evenodd" clip-rule="evenodd" d="M14.105 19.0397H15.3805V20.2798H14.105V19.0397Z" fill="black"/>
<path fill-rule="evenodd" clip-rule="evenodd" d="M19.207 22.7598H20.4825V23.9999H19.207V22.7598Z" fill="black"/>
<path fill-rule="evenodd" clip-rule="evenodd" d="M15.3804 16.5596H16.6558V17.7996H15.3804V16.5596Z" fill="black"/>
<path fill-rule="evenodd" clip-rule="evenodd" d="M20.4824 21.5198H21.7579V22.7599H20.4824V21.5198Z" fill="black"/>
<path fill-rule="evenodd" clip-rule="evenodd" d="M16.6562 17.7997H17.9317V19.0398H16.6562V17.7997Z" fill="black"/>
<path fill-rule="evenodd" clip-rule="evenodd" d="M17.9316 16.5596H19.2071V17.7996H17.9316V16.5596Z" fill="black"/>
<path fill-rule="evenodd" clip-rule="evenodd" d="M14.105 17.7997H15.3805V19.0398H14.105V17.7997Z" fill="black"/>
<path fill-rule="evenodd" clip-rule="evenodd" d="M21.7578 20.2797H23.0333V21.5198H21.7578V20.2797Z" fill="black"/>
<path fill-rule="evenodd" clip-rule="evenodd" d="M17.9316 15.3196H19.2071V16.5596H17.9316V15.3196Z" fill="black"/>
<path fill-rule="evenodd" clip-rule="evenodd" d="M23.0332 19.0397H24.3087V20.2798H23.0332V19.0397Z" fill="black"/>
<path fill-rule="evenodd" clip-rule="evenodd" d="M19.207 14.0795H20.4825V15.3195H19.207V14.0795Z" fill="black"/>
<path fill-rule="evenodd" clip-rule="evenodd" d="M24.3091 17.7997H25.5846V19.0398H24.3091V17.7997Z" fill="black"/>
<path fill-rule="evenodd" clip-rule="evenodd" d="M20.4824 12.8395H21.7579V14.0795H20.4824V12.8395Z" fill="black"/>
<path fill-rule="evenodd" clip-rule="evenodd" d="M25.5845 16.5596H26.86V17.7996H25.5845V16.5596Z" fill="black"/>
<path fill-rule="evenodd" clip-rule="evenodd" d="M21.7578 11.5995H23.0333V12.8396H21.7578V11.5995Z" fill="black"/>
<path fill-rule="evenodd" clip-rule="evenodd" d="M24.3091 15.3196H25.5846V16.5596H24.3091V15.3196Z" fill="black"/>
<path fill-rule="evenodd" clip-rule="evenodd" d="M20.4824 10.3594H21.7579V11.5994H20.4824V10.3594Z" fill="black"/>
<path fill-rule="evenodd" clip-rule="evenodd" d="M26.8599 17.7997H28.1353V19.0398H26.8599V17.7997Z" fill="black"/>
<path fill-rule="evenodd" clip-rule="evenodd" d="M23.0332 12.8395H24.3087V14.0795H23.0332V12.8395Z" fill="black"/>
<path fill-rule="evenodd" clip-rule="evenodd" d="M26.8599 15.3196H28.1353V16.5596H26.8599V15.3196Z" fill="black"/>
<path fill-rule="evenodd" clip-rule="evenodd" d="M23.0332 10.3594H24.3087V11.5994H23.0332V10.3594Z" fill="black"/>
<path fill-rule="evenodd" clip-rule="evenodd" d="M25.5845 15.3196H26.86V16.5596H25.5845V15.3196Z" fill="black"/>
<path fill-rule="evenodd" clip-rule="evenodd" d="M21.7578 10.3594H23.0333V11.5994H21.7578V10.3594Z" fill="black"/>
<path fill-rule="evenodd" clip-rule="evenodd" d="M26.8599 16.5596H28.1353V17.7996H26.8599V16.5596Z" fill="black"/>
<path fill-rule="evenodd" clip-rule="evenodd" d="M23.0332 11.5995H24.3087V12.8396H23.0332V11.5995Z" fill="black"/>
<path fill-rule="evenodd" clip-rule="evenodd" d="M16.6562 22.7598H17.9317V23.9999H16.6562V22.7598Z" fill="black"/>
<path fill-rule="evenodd" clip-rule="evenodd" d="M12.8296 20.2797H14.1051V21.5198H12.8296V20.2797Z" fill="black"/>
</g>
<defs>
<clipPath id="clip0_142_112">
<rect width="40.8153" height="39.6815" fill="white" transform="translate(1.35059 4.15924)"/>
</clipPath>
</defs>
</svg>
