<svg width="13" height="16" viewBox="0 0 13 16" fill="none" xmlns="http://www.w3.org/2000/svg">
<path d="M8.32692 5.84615L8.09615 12.3077M4.90385 12.3077L4.67308 5.84615M11.3184 3.54195C11.5464 3.57903 11.7736 3.6187 12 3.66093M11.3184 3.54195L10.6065 13.5085C10.5464 14.3501 9.89476 15 9.11095 15H3.88905C3.10524 15 2.45358 14.3501 2.39346 13.5085L1.68157 3.54195M11.3184 3.54195C10.5542 3.41765 9.781 3.32246 9 3.25746M1 3.66093C1.22638 3.6187 1.45358 3.57903 1.68157 3.54195M1.68157 3.54195C2.44585 3.41765 3.219 3.32246 4 3.25746M9 3.25746V2.59972C9 1.753 8.3929 1.04611 7.60706 1.01904C7.23948 1.00638 6.87043 1 6.5 1C6.12957 1 5.76052 1.00638 5.39294 1.01904C4.6071 1.04611 4 1.753 4 2.59972V3.25746M9 3.25746C8.17504 3.18881 7.34131 3.15385 6.5 3.15385C5.65869 3.15385 4.82496 3.18881 4 3.25746" stroke="white" stroke-width="1.41818" stroke-linecap="round" stroke-linejoin="round"/>
</svg>
