<svg width="50" height="50" viewBox="0 0 50 50" fill="none" xmlns="http://www.w3.org/2000/svg">
<path d="M41.3892 36.8305H45.7028C46.0767 36.8305 46.2832 36.4008 46.0544 36.1107L26.4059 10.9544C26.2397 10.7407 26.0269 10.5677 25.7837 10.4488C25.5404 10.3298 25.2732 10.2679 25.0025 10.2679C24.7317 10.2679 24.4645 10.3298 24.2213 10.4488C23.9781 10.5677 23.7652 10.7407 23.599 10.9544L3.95058 36.1107C3.72179 36.4064 3.92826 36.8305 4.30214 36.8305H8.61576C8.8892 36.8305 9.15147 36.7022 9.31889 36.4901L24.9997 16.4008L40.6861 36.4901C40.8535 36.7022 41.1158 36.8305 41.3892 36.8305Z" fill="white"/>
</svg>
