<svg width="43" height="43" viewBox="0 0 43 43" fill="none" xmlns="http://www.w3.org/2000/svg">
<path fill-rule="evenodd" clip-rule="evenodd" d="M21.5 7.16668C13.5839 7.16668 7.16665 13.5839 7.16665 21.5C7.16665 25.2609 8.61442 28.6844 10.9865 31.2426C11.076 30.9463 11.1951 30.6553 11.3505 30.3775C11.8772 29.4357 12.5417 28.5648 13.3301 27.7948C14.1214 27.022 15.014 26.3734 15.9769 25.861C14.5105 24.4573 13.5936 22.4956 13.5936 20.3056C13.5936 15.9781 17.1735 12.5417 21.5 12.5417C25.8265 12.5417 29.4063 15.9781 29.4063 20.3056C29.4063 22.4956 28.4895 24.4573 27.0231 25.861C27.9859 26.3734 28.8786 27.022 29.6698 27.7948C30.4582 28.5648 31.1227 29.4357 31.6495 30.3775C31.8048 30.6553 31.9239 30.9463 32.0135 31.2426C34.3855 28.6844 35.8333 25.2609 35.8333 21.5C35.8333 13.5839 29.4161 7.16668 21.5 7.16668ZM28.5612 33.9766C28.6307 33.6187 28.6656 33.2828 28.6666 32.9851C28.6683 32.4933 28.5782 32.2271 28.5221 32.1267C28.1627 31.4842 27.7081 30.8877 27.1661 30.3583C25.6704 28.8974 23.633 28.0695 21.5 28.0695C19.367 28.0695 17.3296 28.8974 15.8339 30.3583C15.2918 30.8877 14.8372 31.4842 14.4779 32.1267C14.4217 32.2271 14.3316 32.4933 14.3333 32.9851C14.3344 33.2828 14.3692 33.6187 14.4388 33.9766C16.5219 35.1584 18.9298 35.8333 21.5 35.8333C24.0701 35.8333 26.4781 35.1584 28.5612 33.9766ZM21.5 24.4861C23.9276 24.4861 25.823 22.5748 25.823 20.3056C25.823 18.0363 23.9276 16.125 21.5 16.125C19.0724 16.125 17.177 18.0363 17.177 20.3056C17.177 22.5748 19.0724 24.4861 21.5 24.4861ZM3.58331 21.5C3.58331 11.6049 11.6049 3.58334 21.5 3.58334C31.3951 3.58334 39.4166 11.6049 39.4166 21.5C39.4166 27.8734 36.0875 33.468 31.0818 36.6417C28.3096 38.3993 25.0209 39.4167 21.5 39.4167C17.9791 39.4167 14.6904 38.3993 11.9182 36.6417C6.91247 33.468 3.58331 27.8734 3.58331 21.5Z" fill="white"/>
</svg>
